<?xml version="1.0" encoding="UTF-8" standalone="no"?>
<svg width="32px" height="38px" viewBox="0 0 32 38" version="1.1" xmlns="http://www.w3.org/2000/svg" xmlns:xlink="http://www.w3.org/1999/xlink" xmlns:sketch="http://www.bohemiancoding.com/sketch/ns">
    <!-- Generator: Sketch 3.4.4 (17249) - http://www.bohemiancoding.com/sketch -->
    <title>document-locked</title>
    <desc>Created with Sketch.</desc>
    <defs></defs>
    <g id="Page-1" stroke="none" stroke-width="1" fill="none" fill-rule="evenodd" sketch:type="MSPage">
        <path d="M4.64431293,1.299452 L18.9558017,1.299452 L29.6679938,12.0116442 L29.6679938,33.4360285 C29.6679938,34.3846526 29.3055647,35.2077061 28.5807063,35.9051888 C27.855848,36.6026715 27.0191068,36.9514129 26.0704826,36.9514129 L4.64609829,36.9514129 C3.69747416,36.9514129 2.86073293,36.6026715 2.13587459,35.9051888 C1.41101625,35.2077061 1.04858709,34.3846526 1.04858709,33.4360285 L1.13249926,4.81483639 C1.13249926,3.86621227 1.48124063,3.04315883 2.17872336,2.3456761 C2.87620609,1.64819336 3.69925953,1.299452 4.64788366,1.299452 L4.64431293,1.299452 Z" id="Shape" stroke="#333333" fill="#FFFFFF" sketch:type="MSShapeGroup"></path>
        <path d="M18.5,1.52429354 L18.5,12.5" id="Line" stroke="#333333" fill="#333333" sketch:type="MSShapeGroup"></path>
        <path d="M18.5,12.5 L30.0101644,12.5" id="Line" stroke="#333333" fill="#333333" sketch:type="MSShapeGroup"></path>
        <path d="M17.3000877,17.2539583 L17.3000877,15.7477042 C17.3000877,15.1171097 17.0724561,14.5741808 16.6171928,14.1189175 C16.1619294,13.6636542 15.6190006,13.4360225 14.9884061,13.4360225 C14.3578116,13.4360225 13.8148827,13.6636542 13.3596194,14.1189175 C12.9043561,14.5741808 12.6767244,15.1171097 12.6767244,15.7477042 L12.6767244,17.2539583 L17.3000877,17.2539583 L17.3000877,17.2539583 Z M19.4713052,17.2539583 C19.8682908,17.2539583 20.2184551,17.3999015 20.5217979,17.6917881 C20.8251407,17.9836746 20.9768122,18.3281107 20.9768122,18.7250963 L20.9768122,26.2197565 C20.9768122,26.6167421 20.8251407,26.9611782 20.5217979,27.2530648 C20.2184551,27.5449513 19.8682908,27.6908946 19.4713052,27.6908946 L10.505507,27.6908946 C10.1085213,27.6908946 9.7583571,27.5449513 9.45501426,27.2530648 C9.15167142,26.9611782 9,26.6167421 9,26.2197565 L9,18.7250963 C9,18.3281107 9.15167142,17.9836746 9.45501426,17.6917881 C9.7583571,17.3999015 10.1085213,17.2539583 10.505507,17.2539583 L11.2407024,17.2539583 L11.2407024,15.7477042 C11.2407024,14.7201241 11.6085492,13.8387363 12.3442427,13.1035408 C13.0799363,12.3683454 13.9613241,12.0004986 14.9884061,12.0000005 C16.0154881,11.9995024 16.8968759,12.3673492 17.6325694,13.1035408 C18.368263,13.8397325 18.7361097,14.7211203 18.7361097,15.7477042 L18.7361097,17.2539583 L19.4713052,17.2539583 L19.4713052,17.2539583 Z" id="Shape" fill="#333333" sketch:type="MSShapeGroup"></path>
    </g>
</svg>