<?xml version="1.0" encoding="UTF-8" standalone="no"?>
<svg width="18px" height="22px" viewBox="0 0 18 22" version="1.1" xmlns="http://www.w3.org/2000/svg" xmlns:xlink="http://www.w3.org/1999/xlink" xmlns:sketch="http://www.bohemiancoding.com/sketch/ns">
    <!-- Generator: Sketch 3.4.4 (17249) - http://www.bohemiancoding.com/sketch -->
    <title>Untitled 2</title>
    <desc>Created with Sketch.</desc>
    <defs></defs>
    <g id="Page-1" stroke="none" stroke-width="1" fill="none" fill-rule="evenodd" sketch:type="MSPage">
        <path d="M15,8.016 C15.5313333,8.016 16,8.21133333 16.406,8.602 C16.812,8.99266667 17.015,9.45366667 17.015,9.985 L17.015,20.016 C17.015,20.5473333 16.812,21.0083333 16.406,21.399 C16,21.7896667 15.5313333,21.985 15,21.985 L3,21.985 C2.46866667,21.985 2,21.7896667 1.594,21.399 C1.188,21.0083333 0.985,20.5473333 0.985,20.016 L0.985,9.985 C0.985,9.45366667 1.188,8.99266667 1.594,8.602 C2,8.21133333 2.46866667,8.016 3,8.016 L12.094,8.016 L12.094,6 C12.094,5.156 11.7893333,4.42933333 11.18,3.82 C10.5706667,3.21066667 9.844,2.906 9,2.906 C8.156,2.906 7.42933333,3.21066667 6.82,3.82 C6.21066667,4.42933333 5.906,5.156 5.906,6 L3.984,6 C3.984,4.62466667 4.47633333,3.445 5.461,2.461 C6.44566667,1.477 7.62533333,0.984666667 9,0.984 C10.3746667,0.983333333 11.5543333,1.47566667 12.539,2.461 C13.5236667,3.44633333 14.016,4.626 14.016,6 L14.016,8.016 L15,8.016 L15,8.016 Z M9,17.016 C8.46866667,17.016 8,16.813 7.594,16.407 C7.188,16.001 6.985,15.5323333 6.985,15.001 C6.985,14.4696667 7.188,14.001 7.594,13.595 C8,13.189 8.46866667,12.986 9,12.986 C9.53133333,12.986 10,13.189 10.406,13.595 C10.812,14.001 11.015,14.4696667 11.015,15.001 C11.015,15.5323333 10.812,16.001 10.406,16.407 C10,16.813 9.53133333,17.016 9,17.016 L9,17.016 Z" id="Shape" fill="#333333" sketch:type="MSShapeGroup"></path>
    </g>
</svg>