<?xml version="1.0" encoding="UTF-8" standalone="no"?>
<svg width="1001px" height="283px" viewBox="0 0 1001 283" version="1.1" xmlns="http://www.w3.org/2000/svg" xmlns:xlink="http://www.w3.org/1999/xlink" xmlns:sketch="http://www.bohemiancoding.com/sketch/ns">
    <!-- Generator: Sketch 3.4.2 (15855) - http://www.bohemiancoding.com/sketch -->
    <title>logo</title>
    <desc>Created with Sketch.</desc>
    <defs></defs>
    <g id="Page-1" stroke="none" stroke-width="1" fill="none" fill-rule="evenodd" sketch:type="MSPage">
        <path d="M226.785222,282.809998 L239.832087,282.809998 L302.380296,53.7223876 C310.054923,26.0937311 319.264475,18.8028357 347.276863,17.2679103 L351.881639,0 L251.344028,0 L246.739252,17.2679103 C261.704774,17.2679103 283.193729,21.1052237 283.193729,39.1405967 C283.193729,48.7338802 280.891341,59.4783577 278.205221,69.0716412 L239.064625,214.88955 L238.297162,214.88955 L140.829402,0 L62.9319398,0 L58.3271637,17.2679103 L81.7347754,17.2679103 C95.1653723,17.2679103 101.688805,20.337761 103.991193,29.5473132 L54.8735816,211.435968 C46.4314921,243.28567 40.2917907,258.251192 4.60477608,259.786117 L0,277.054027 L105.90985,277.054027 L110.514626,259.786117 C95.1653723,259.786117 70.6065666,257.483729 70.6065666,236.378505 C70.6065666,231.006267 70.9902979,225.634028 72.9089546,220.64552 L118.189253,47.5826862 L118.956715,47.5826862 L226.785222,282.809998 Z M504.990443,171.91164 C504.990443,130.084924 476.978056,98.235223 434.000146,98.235223 C377.591639,98.235223 333.078803,156.562387 333.078803,209.901043 C333.078803,255.948804 358.02134,282.809998 403.301638,282.809998 C460.477608,282.809998 504.990443,225.634028 504.990443,171.91164 L504.990443,171.91164 Z M405.220295,269.379401 C377.207907,269.379401 368.382086,251.727759 368.382086,226.401491 C368.382086,192.633133 388.719847,111.66582 433.232683,111.66582 C460.861339,111.66582 469.68716,132.771044 469.68716,157.329849 C469.68716,191.481939 449.349399,269.379401 405.220295,269.379401 L405.220295,269.379401 Z M537.991339,226.401491 C536.072682,234.076117 533.386563,242.518207 533.386563,250.192834 C533.386563,269.379401 542.979846,282.809998 563.317607,282.809998 C594.783577,282.809998 619.342383,247.506714 633.540442,223.715371 L622.028502,216.040744 C614.737607,227.552685 590.562532,263.623431 575.59701,263.623431 C568.689846,263.623431 564.08507,261.321043 564.08507,253.646416 C564.08507,249.04164 565.619995,244.053132 567.15492,239.448356 L602.458204,121.259103 L645.819845,121.259103 L650.04089,103.991193 L608.214174,103.991193 L628.935666,39.524328 L598.237159,39.524328 L575.59701,103.991193 L539.142533,103.991193 L534.921488,121.259103 L570.224771,121.259103 L537.991339,226.401491 Z M789.719098,233.308655 C775.521038,249.04164 754.032083,265.542087 731.775665,265.542087 C702.612083,265.542087 692.251337,248.274177 692.251337,221.412983 C692.251337,218.343132 692.635069,214.88955 693.0188,211.435968 C730.624471,203.37761 808.138202,186.493431 808.138202,136.608357 C808.138202,108.979701 785.114322,98.235223 761.70671,98.235223 C709.135516,98.235223 656.948054,151.573879 656.948054,218.343132 C656.948054,259.018654 684.960442,282.809998 724.48477,282.809998 C756.718202,282.809998 778.590889,267.077013 798.544918,243.28567 L789.719098,233.308655 Z M694.937457,198.005371 C699.158501,166.15567 717.193874,111.66582 756.334471,111.66582 C769.765068,111.66582 777.439695,120.491641 777.439695,134.305969 C777.439695,165.771939 746.357456,188.028357 694.937457,198.005371 L694.937457,198.005371 Z M881.814619,144.666715 C881.814619,120.875372 902.919843,111.66582 923.641335,111.66582 C932.083425,111.66582 950.118798,113.200745 950.118798,122.794029 C950.118798,129.701193 940.141783,130.468656 940.141783,143.515521 C940.141783,154.64373 949.735066,159.632237 960.479544,159.632237 C974.293872,159.632237 980.817305,149.271491 980.817305,137.37582 C980.817305,107.444775 947.048947,98.235223 922.490141,98.235223 C889.489246,98.235223 854.185963,116.270596 854.185963,153.876267 C854.185963,182.656118 875.674918,192.633133 896.780142,200.691491 C923.641335,211.052237 938.990589,216.808207 938.990589,234.84358 C938.990589,260.937311 914.815514,269.379401 892.942828,269.379401 C880.279694,269.379401 861.093127,264.774625 861.093127,253.646416 C861.093127,244.436864 872.221336,247.506714 872.221336,231.006267 C872.221336,220.64552 863.395515,214.505819 852.651037,214.505819 C836.534321,214.505819 830.39462,228.703879 830.39462,241.367013 C830.39462,274.367908 868.767754,282.809998 894.477753,282.809998 C930.932231,282.809998 966.619245,263.239699 966.619245,222.947909 C966.619245,195.702983 945.514022,184.574775 924.025067,176.516416 C896.39641,166.15567 881.814619,161.167163 881.814619,144.666715 L881.814619,144.666715 Z" id="Notes" fill="#FFFFFF" sketch:type="MSShapeGroup"></path>
    </g>
</svg>