<?xml version="1.0" encoding="UTF-8" standalone="no"?>
<svg width="495px" height="495px" viewBox="0 0 495 495" version="1.1" xmlns="http://www.w3.org/2000/svg" xmlns:xlink="http://www.w3.org/1999/xlink" xmlns:sketch="http://www.bohemiancoding.com/sketch/ns">
    <!-- Generator: Sketch 3.4.2 (15855) - http://www.bohemiancoding.com/sketch -->
    <title>Untitled 2</title>
    <desc>Created with Sketch.</desc>
    <defs></defs>
    <g id="Page-1" stroke="none" stroke-width="1" fill="none" fill-rule="evenodd" sketch:type="MSPage">
        <path d="M178.99847,494.625761 L247.5,418.75 L316.00153,494.625761 C336.403589,488.982833 355.784491,480.881149 373.805279,470.659668 L368.592036,368.592036 L470.659681,373.805255 C480.881149,355.784491 488.982833,336.403589 494.625761,316.00153 L418.75,247.5 L494.625761,178.99847 C488.982833,158.596411 480.881149,139.215509 470.659668,121.194721 L368.592036,126.407964 L373.805255,24.3403188 C355.784491,14.1188508 336.403589,6.01716709 316.00153,0.374238861 L247.5,76.25 L178.99847,0.374238861 C158.596411,6.01716709 139.215509,14.1188508 121.194721,24.3403325 L126.407964,126.407964 L24.3403188,121.194745 C14.1188508,139.215509 6.01716709,158.596411 0.374238861,178.99847 L76.25,247.5 L0.374238861,316.00153 C6.01716709,336.403589 14.1188508,355.784491 24.3403325,373.805279 L126.407964,368.592036 L121.194745,470.659681 C139.215509,480.881149 158.596411,488.982833 178.99847,494.625761 Z M247.5,375 C317.916306,375 375,317.916306 375,247.5 C375,177.083694 317.916306,120 247.5,120 C177.083694,120 120,177.083694 120,247.5 C120,317.916306 177.083694,375 247.5,375 Z M247,296 C274.061953,296 296,274.061953 296,247 C296,219.938047 274.061953,198 247,198 C219.938047,198 198,219.938047 198,247 C198,274.061953 219.938047,296 247,296 Z" id="Star-1" fill="#333333" sketch:type="MSShapeGroup"></path>
    </g>
</svg>